<svg width="452" height="87" viewBox="0 0 452 87" fill="none" xmlns="http://www.w3.org/2000/svg">
<path d="M378.789 0.507324H397.509L433.269 57.9873H433.509V0.507324H451.149V86.1873H432.309L396.669 28.8273H396.429V86.1873H378.789V0.507324Z" fill="black"/>
<path d="M344.598 0.507324H363.438V86.1873H344.598V0.507324Z" fill="black"/>
<path d="M291.399 16.3473H265.719V0.507324H335.919V16.3473H310.239V86.1873H291.399V16.3473Z" fill="black"/>
<path d="M207.986 39.2673H228.626C232.946 39.2673 236.186 38.3073 238.346 36.3873C240.506 34.4673 241.586 31.3473 241.586 27.0273C241.586 22.8673 240.506 19.8673 238.346 18.0273C236.186 16.1073 232.946 15.1473 228.626 15.1473H207.986V39.2673ZM189.146 0.507324H235.346C239.186 0.507324 242.626 1.14732 245.666 2.42733C248.786 3.62733 251.426 5.30733 253.586 7.46733C255.826 9.62733 257.506 12.1473 258.626 15.0273C259.826 17.8273 260.426 20.8673 260.426 24.1473C260.426 29.1873 259.346 33.5473 257.186 37.2273C255.106 40.9073 251.666 43.7073 246.866 45.6273V45.8673C249.186 46.5073 251.106 47.5073 252.626 48.8673C254.146 50.1473 255.386 51.7073 256.346 53.5473C257.306 55.3073 257.986 57.2673 258.386 59.4273C258.866 61.5873 259.186 63.7473 259.346 65.9073C259.426 67.2673 259.506 68.8673 259.586 70.7073C259.666 72.5473 259.786 74.4273 259.947 76.3473C260.187 78.2673 260.506 80.1073 260.906 81.8673C261.386 83.5473 262.066 84.9873 262.946 86.1873H244.106C243.066 83.4673 242.426 80.2273 242.186 76.4673C241.946 72.7073 241.586 69.1073 241.106 65.6673C240.466 61.1873 239.106 57.9073 237.026 55.8273C234.946 53.7473 231.546 52.7073 226.826 52.7073H207.986V86.1873H189.146V0.507324Z" fill="black"/>
<path d="M129.799 53.0673H151.999L141.199 21.6273H140.959L129.799 53.0673ZM131.599 0.507324H150.919L182.959 86.1873H163.399L156.919 67.1073H124.879L118.159 86.1873H99.1992L131.599 0.507324Z" fill="black"/>
<path d="M0.53125 0.507324H27.0513L47.0913 59.4273H47.3313L66.2913 0.507324H92.8113V86.1873H75.1713V25.4673H74.9313L53.9313 86.1873H39.4112L18.4113 26.0673H18.1712V86.1873H0.53125V0.507324Z" fill="black"/>
</svg>
