<svg width="451" height="86" viewBox="0 0 451 86" fill="none" xmlns="http://www.w3.org/2000/svg">
<path d="M371.434 0.319824H390.274V33.1998H424.954V0.319824H443.794V85.9998H424.954V49.0398H390.274V85.9998H371.434V0.319824Z" fill="black"/>
<path d="M339.718 29.5877C339.405 27.5154 338.701 25.635 337.606 23.9465C336.512 22.1812 335.143 20.6461 333.501 19.3414C331.859 18.0366 329.982 17.0388 327.871 16.3481C325.838 15.5805 323.688 15.1968 321.42 15.1968C317.276 15.1968 313.757 16.0027 310.864 17.6145C307.97 19.1495 305.624 21.2601 303.826 23.9465C302.027 26.556 300.698 29.5493 299.838 32.9264C299.056 36.3034 298.665 39.7956 298.665 43.4029C298.665 46.8568 299.056 50.2338 299.838 53.5341C300.698 56.7577 302.027 59.6743 303.826 62.2838C305.624 64.8934 307.97 67.004 310.864 68.6158C313.757 70.1508 317.276 70.9183 321.42 70.9183C327.05 70.9183 331.429 69.2298 334.557 65.8527C337.763 62.4757 339.718 58.0241 340.421 52.498H358.25C357.781 57.6403 356.569 62.2838 354.614 66.4284C352.659 70.573 350.079 74.1035 346.873 77.0201C343.667 79.9366 339.913 82.1624 335.612 83.6975C331.312 85.2325 326.581 86 321.42 86C315.008 86 309.221 84.9255 304.061 82.7764C298.978 80.5506 294.677 77.519 291.158 73.6814C287.639 69.8438 284.942 65.3539 283.065 60.2115C281.188 54.9924 280.25 49.3896 280.25 43.4029C280.25 37.2628 281.188 31.5832 283.065 26.3641C284.942 21.0683 287.639 16.4632 291.158 12.5489C294.677 8.63454 298.978 5.56448 304.061 3.33869C309.221 1.1129 315.008 0 321.42 0C326.033 0 330.373 0.652388 334.439 1.95716C338.584 3.26194 342.259 5.18072 345.465 7.71352C348.749 10.1696 351.447 13.2396 353.558 16.9237C355.67 20.6078 356.999 24.8291 357.546 29.5877H339.718Z" fill="black"/>
<path d="M195.943 0.319824H214.663L250.423 57.7998H250.663V0.319824H268.303V85.9998H249.463L213.823 28.6398H213.583V85.9998H195.943V0.319824Z" fill="black"/>
<path d="M181.25 52.3068C181.25 63.695 178.014 72.1772 171.541 77.7534C165.068 83.2511 156.118 86 144.69 86C133.103 86 124.113 83.2511 117.72 77.7534C111.407 72.2557 108.25 63.7735 108.25 52.3068V0H127.069V52.3068C127.069 54.5845 127.269 56.8228 127.669 59.0219C128.068 61.221 128.907 63.1845 130.186 64.9123C131.465 66.5617 133.223 67.9361 135.46 69.0356C137.778 70.0566 140.854 70.5671 144.69 70.5671C151.403 70.5671 156.038 69.1142 158.595 66.2082C161.152 63.2237 162.431 58.59 162.431 52.3068V0H181.25V52.3068Z" fill="black"/>
<path d="M0.53125 0.319824H27.0513L47.0913 59.2398H47.3313L66.2913 0.319824H92.8113V85.9998H75.1713V25.2798H74.9313L53.9313 85.9998H39.4112L18.4113 25.8798H18.1712V85.9998H0.53125V0.319824Z" fill="black"/>
</svg>
