<svg width="450" height="86" viewBox="0 0 450 86" fill="none" xmlns="http://www.w3.org/2000/svg">
<path d="M400.561 40.6398H415.201C417.361 40.6398 419.441 40.4798 421.441 40.1598C423.441 39.8398 425.201 39.2398 426.721 38.3598C428.241 37.3998 429.441 36.0798 430.321 34.3998C431.281 32.7198 431.761 30.5198 431.761 27.7998C431.761 25.0798 431.281 22.8798 430.321 21.1998C429.441 19.5198 428.241 18.2398 426.721 17.3598C425.201 16.3998 423.441 15.7598 421.441 15.4398C419.441 15.1198 417.361 14.9598 415.201 14.9598H400.561V40.6398ZM381.721 0.319824H420.361C425.721 0.319824 430.281 1.11983 434.041 2.71983C437.801 4.23983 440.841 6.27983 443.161 8.83983C445.561 11.3998 447.281 14.3198 448.321 17.5998C449.441 20.8798 450.001 24.2798 450.001 27.7998C450.001 31.2398 449.441 34.6398 448.321 37.9998C447.281 41.2798 445.561 44.1998 443.161 46.7598C440.841 49.3198 437.801 51.3998 434.041 52.9998C430.281 54.5198 425.721 55.2798 420.361 55.2798H400.561V85.9998H381.721V0.319824Z" fill="black"/>
<path d="M305.611 43.4029C305.611 46.8568 305.996 50.2338 306.765 53.5341C307.611 56.7577 308.919 59.6743 310.688 62.2838C312.458 64.8934 314.765 67.004 317.611 68.6158C320.458 70.1508 323.919 70.9183 327.996 70.9183C332.073 70.9183 335.535 70.1508 338.381 68.6158C341.227 67.004 343.535 64.8934 345.304 62.2838C347.073 59.6743 348.342 56.7577 349.111 53.5341C349.958 50.2338 350.381 46.8568 350.381 43.4029C350.381 39.7956 349.958 36.3034 349.111 32.9264C348.342 29.5493 347.073 26.556 345.304 23.9465C343.535 21.2601 341.227 19.1495 338.381 17.6145C335.535 16.0027 332.073 15.1968 327.996 15.1968C323.919 15.1968 320.458 16.0027 317.611 17.6145C314.765 19.1495 312.458 21.2601 310.688 23.9465C308.919 26.556 307.611 29.5493 306.765 32.9264C305.996 36.3034 305.611 39.7956 305.611 43.4029ZM287.496 43.4029C287.496 37.2628 288.419 31.5832 290.265 26.3641C292.111 21.0683 294.765 16.4632 298.227 12.5489C301.688 8.63454 305.919 5.56448 310.919 3.33869C315.996 1.1129 321.688 0 327.996 0C334.381 0 340.073 1.1129 345.073 3.33869C350.073 5.56448 354.304 8.63454 357.765 12.5489C361.227 16.4632 363.881 21.0683 365.727 26.3641C367.573 31.5832 368.496 37.2628 368.496 43.4029C368.496 49.3896 367.573 54.9924 365.727 60.2115C363.881 65.3539 361.227 69.8438 357.765 73.6814C354.304 77.519 350.073 80.5506 345.073 82.7764C340.073 84.9255 334.381 86 327.996 86C321.688 86 315.996 84.9255 310.919 82.7764C305.919 80.5506 301.688 77.519 298.227 73.6814C294.765 69.8438 292.111 65.3539 290.265 60.2115C288.419 54.9924 287.496 49.3896 287.496 43.4029Z" fill="black"/>
<path d="M220.617 70.1598H237.417C240.137 70.1598 242.777 69.7198 245.337 68.8398C247.897 67.9598 250.177 66.5198 252.177 64.5198C254.177 62.4398 255.777 59.7598 256.977 56.4798C258.177 53.1998 258.777 49.1998 258.777 44.4798C258.777 40.1598 258.337 36.2798 257.457 32.8398C256.657 29.3198 255.297 26.3198 253.377 23.8398C251.457 21.3598 248.897 19.4798 245.697 18.1998C242.577 16.8398 238.697 16.1598 234.057 16.1598H220.617V70.1598ZM201.777 0.319824H238.737C244.257 0.319824 249.377 1.19982 254.097 2.95982C258.897 4.71982 263.017 7.35982 266.457 10.8798C269.977 14.3998 272.697 18.7998 274.617 24.0798C276.617 29.3598 277.617 35.5598 277.617 42.6798C277.617 48.9198 276.817 54.6798 275.217 59.9598C273.617 65.2398 271.177 69.7998 267.897 73.6398C264.697 77.4798 260.657 80.5198 255.777 82.7598C250.977 84.9198 245.297 85.9998 238.737 85.9998H201.777V0.319824Z" fill="black"/>
</svg>
