<svg width="450" height="86" viewBox="0 0 450 86" fill="none" xmlns="http://www.w3.org/2000/svg">
<path d="M198.783 40.6398H213.423C215.583 40.6398 217.663 40.4798 219.663 40.1598C221.663 39.8398 223.423 39.2398 224.943 38.3598C226.463 37.3998 227.663 36.0798 228.543 34.3998C229.503 32.7198 229.983 30.5198 229.983 27.7998C229.983 25.0798 229.503 22.8798 228.543 21.1998C227.663 19.5198 226.463 18.2398 224.943 17.3598C223.423 16.3998 221.663 15.7598 219.663 15.4398C217.663 15.1198 215.583 14.9598 213.423 14.9598H198.783V40.6398ZM179.943 0.319824H218.583C223.943 0.319824 228.503 1.11983 232.263 2.71983C236.023 4.23983 239.063 6.27983 241.383 8.83983C243.783 11.3998 245.503 14.3198 246.543 17.5998C247.663 20.8798 248.223 24.2798 248.223 27.7998C248.223 31.2398 247.663 34.6398 246.543 37.9998C245.503 41.2798 243.783 44.1998 241.383 46.7598C239.063 49.3198 236.023 51.3998 232.263 52.9998C228.503 54.5198 223.943 55.2798 218.583 55.2798H198.783V85.9998H179.943V0.319824Z" fill="black"/>
<path d="M103.834 43.4029C103.834 46.8568 104.219 50.2338 104.988 53.5341C105.834 56.7577 107.142 59.6743 108.911 62.2838C110.68 64.8934 112.988 67.004 115.834 68.6158C118.68 70.1508 122.142 70.9183 126.219 70.9183C130.296 70.9183 133.757 70.1508 136.603 68.6158C139.45 67.004 141.757 64.8934 143.526 62.2838C145.296 59.6743 146.565 56.7577 147.334 53.5341C148.18 50.2338 148.603 46.8568 148.603 43.4029C148.603 39.7956 148.18 36.3034 147.334 32.9264C146.565 29.5493 145.296 26.556 143.526 23.9465C141.757 21.2601 139.45 19.1495 136.603 17.6145C133.757 16.0027 130.296 15.1968 126.219 15.1968C122.142 15.1968 118.68 16.0027 115.834 17.6145C112.988 19.1495 110.68 21.2601 108.911 23.9465C107.142 26.556 105.834 29.5493 104.988 32.9264C104.219 36.3034 103.834 39.7956 103.834 43.4029ZM85.7188 43.4029C85.7188 37.2628 86.6418 31.5832 88.488 26.3641C90.3341 21.0683 92.988 16.4632 96.4495 12.5489C99.9111 8.63454 104.142 5.56448 109.142 3.33869C114.219 1.1129 119.911 0 126.219 0C132.603 0 138.296 1.1129 143.296 3.33869C148.296 5.56448 152.526 8.63454 155.988 12.5489C159.45 16.4632 162.103 21.0683 163.95 26.3641C165.796 31.5832 166.719 37.2628 166.719 43.4029C166.719 49.3896 165.796 54.9924 163.95 60.2115C162.103 65.3539 159.45 69.8438 155.988 73.6814C152.526 77.519 148.296 80.5506 143.296 82.7764C138.296 84.9255 132.603 86 126.219 86C119.911 86 114.219 84.9255 109.142 82.7764C104.142 80.5506 99.9111 77.519 96.4495 73.6814C92.988 69.8438 90.3341 65.3539 88.488 60.2115C86.6418 54.9924 85.7188 49.3896 85.7188 43.4029Z" fill="black"/>
<path d="M18.84 70.1598H35.64C38.36 70.1598 41 69.7198 43.56 68.8398C46.12 67.9598 48.4 66.5198 50.4 64.5198C52.4 62.4398 54 59.7598 55.2 56.4798C56.4 53.1998 57 49.1998 57 44.4798C57 40.1598 56.56 36.2798 55.68 32.8398C54.88 29.3198 53.52 26.3198 51.6 23.8398C49.68 21.3598 47.12 19.4798 43.92 18.1998C40.8 16.8398 36.92 16.1598 32.28 16.1598H18.84V70.1598ZM0 0.319824H36.96C42.48 0.319824 47.6 1.19982 52.32 2.95982C57.12 4.71982 61.24 7.35982 64.68 10.8798C68.2 14.3998 70.92 18.7998 72.84 24.0798C74.84 29.3598 75.84 35.5598 75.84 42.6798C75.84 48.9198 75.04 54.6798 73.44 59.9598C71.84 65.2398 69.4 69.7998 66.12 73.6398C62.92 77.4798 58.88 80.5198 54 82.7598C49.2 84.9198 43.52 85.9998 36.96 85.9998H0V0.319824Z" fill="black"/>
</svg>
